<?xml version="1.0" encoding="UTF-8" standalone="no"?>
<!DOCTYPE svg PUBLIC "-//W3C//DTD SVG 1.1//EN"
 "http://www.w3.org/Graphics/SVG/1.1/DTD/svg11.dtd">
<!-- Generated by graphviz version 2.47.2 (20210527.1257)
 -->
<!-- Title: snakemake_dag Pages: 1 -->
<svg width="473pt" height="260pt"
 viewBox="0.00 0.00 473.34 260.00" xmlns="http://www.w3.org/2000/svg" xmlns:xlink="http://www.w3.org/1999/xlink">
<g id="graph0" class="graph" transform="scale(1 1) rotate(0) translate(4 256)">
<title>snakemake_dag</title>
<polygon fill="white" stroke="transparent" points="-4,4 -4,-256 469.34,-256 469.34,4 -4,4"/>
<!-- 0 -->
<g id="node1" class="node">
<title>0</title>
<path fill="none" stroke="#d6d856" stroke-width="2" d="M152.84,-36C152.84,-36 122.84,-36 122.84,-36 116.84,-36 110.84,-30 110.84,-24 110.84,-24 110.84,-12 110.84,-12 110.84,-6 116.84,0 122.84,0 122.84,0 152.84,0 152.84,0 158.84,0 164.84,-6 164.84,-12 164.84,-12 164.84,-24 164.84,-24 164.84,-30 158.84,-36 152.84,-36"/>
<text text-anchor="middle" x="137.84" y="-15.5" font-family="sans" font-size="10.00">all</text>
</g>
<!-- 1 -->
<g id="node2" class="node">
<title>1</title>
<path fill="none" stroke="#97d856" stroke-width="2" d="M57.84,-252C57.84,-252 27.84,-252 27.84,-252 21.84,-252 15.84,-246 15.84,-240 15.84,-240 15.84,-228 15.84,-228 15.84,-222 21.84,-216 27.84,-216 27.84,-216 57.84,-216 57.84,-216 63.84,-216 69.84,-222 69.84,-228 69.84,-228 69.84,-240 69.84,-240 69.84,-246 63.84,-252 57.84,-252"/>
<text text-anchor="middle" x="42.84" y="-231.5" font-family="sans" font-size="10.00">dea</text>
</g>
<!-- 1&#45;&gt;0 -->
<g id="edge3" class="edge">
<title>1&#45;&gt;0</title>
<path fill="none" stroke="grey" stroke-width="2" d="M25.95,-215.99C17.55,-206.31 8.26,-193.46 3.84,-180 -1.15,-164.8 -1.35,-159.13 3.84,-144 20.29,-96.07 68.14,-59.4 101.95,-38.53"/>
<polygon fill="grey" stroke="grey" stroke-width="2" points="103.87,-41.46 110.65,-33.31 100.27,-35.45 103.87,-41.46"/>
</g>
<!-- 2 -->
<g id="node3" class="node">
<title>2</title>
<path fill="none" stroke="#d85656" stroke-width="2" d="M60.84,-180C60.84,-180 24.84,-180 24.84,-180 18.84,-180 12.84,-174 12.84,-168 12.84,-168 12.84,-156 12.84,-156 12.84,-150 18.84,-144 24.84,-144 24.84,-144 60.84,-144 60.84,-144 66.84,-144 72.84,-150 72.84,-156 72.84,-156 72.84,-168 72.84,-168 72.84,-174 66.84,-180 60.84,-180"/>
<text text-anchor="middle" x="42.84" y="-159.5" font-family="sans" font-size="10.00">volcanos</text>
</g>
<!-- 1&#45;&gt;2 -->
<g id="edge8" class="edge">
<title>1&#45;&gt;2</title>
<path fill="none" stroke="grey" stroke-width="2" d="M42.84,-215.7C42.84,-207.98 42.84,-198.71 42.84,-190.11"/>
<polygon fill="grey" stroke="grey" stroke-width="2" points="46.34,-190.1 42.84,-180.1 39.34,-190.1 46.34,-190.1"/>
</g>
<!-- 3 -->
<g id="node4" class="node">
<title>3</title>
<path fill="none" stroke="#56d89a" stroke-width="2" d="M144.84,-180C144.84,-180 102.84,-180 102.84,-180 96.84,-180 90.84,-174 90.84,-168 90.84,-168 90.84,-156 90.84,-156 90.84,-150 96.84,-144 102.84,-144 102.84,-144 144.84,-144 144.84,-144 150.84,-144 156.84,-150 156.84,-156 156.84,-156 156.84,-168 156.84,-168 156.84,-174 150.84,-180 144.84,-180"/>
<text text-anchor="middle" x="123.84" y="-159.5" font-family="sans" font-size="10.00">aggregate</text>
</g>
<!-- 1&#45;&gt;3 -->
<g id="edge9" class="edge">
<title>1&#45;&gt;3</title>
<path fill="none" stroke="grey" stroke-width="2" d="M62.87,-215.7C72.97,-206.97 85.38,-196.24 96.36,-186.75"/>
<polygon fill="grey" stroke="grey" stroke-width="2" points="98.77,-189.29 104.05,-180.1 94.2,-183.99 98.77,-189.29"/>
</g>
<!-- 2&#45;&gt;0 -->
<g id="edge1" class="edge">
<title>2&#45;&gt;0</title>
<path fill="none" stroke="grey" stroke-width="2" d="M48.32,-143.92C54.79,-125.22 66.76,-94.86 82.84,-72 90.24,-61.49 99.91,-51.35 109.08,-42.8"/>
<polygon fill="grey" stroke="grey" stroke-width="2" points="111.52,-45.31 116.6,-36.02 106.83,-40.11 111.52,-45.31"/>
</g>
<!-- 3&#45;&gt;0 -->
<g id="edge5" class="edge">
<title>3&#45;&gt;0</title>
<path fill="none" stroke="grey" stroke-width="2" d="M109.09,-143.63C101.75,-133.85 93.66,-121.01 89.84,-108 85.34,-92.65 84.09,-86.93 89.84,-72 93.95,-61.36 101.29,-51.53 109.01,-43.3"/>
<polygon fill="grey" stroke="grey" stroke-width="2" points="111.51,-45.75 116.13,-36.21 106.58,-40.78 111.51,-45.75"/>
</g>
<!-- 4 -->
<g id="node5" class="node">
<title>4</title>
<path fill="none" stroke="#56d8d8" stroke-width="2" d="M164.34,-108C164.34,-108 111.34,-108 111.34,-108 105.34,-108 99.34,-102 99.34,-96 99.34,-96 99.34,-84 99.34,-84 99.34,-78 105.34,-72 111.34,-72 111.34,-72 164.34,-72 164.34,-72 170.34,-72 176.34,-78 176.34,-84 176.34,-84 176.34,-96 176.34,-96 176.34,-102 170.34,-108 164.34,-108"/>
<text text-anchor="middle" x="137.84" y="-87.5" font-family="sans" font-size="10.00">lfc_heatmap</text>
</g>
<!-- 3&#45;&gt;4 -->
<g id="edge10" class="edge">
<title>3&#45;&gt;4</title>
<path fill="none" stroke="grey" stroke-width="2" d="M127.3,-143.7C128.85,-135.98 130.7,-126.71 132.42,-118.11"/>
<polygon fill="grey" stroke="grey" stroke-width="2" points="135.89,-118.6 134.42,-108.1 129.03,-117.22 135.89,-118.6"/>
</g>
<!-- 4&#45;&gt;0 -->
<g id="edge6" class="edge">
<title>4&#45;&gt;0</title>
<path fill="none" stroke="grey" stroke-width="2" d="M137.84,-71.7C137.84,-63.98 137.84,-54.71 137.84,-46.11"/>
<polygon fill="grey" stroke="grey" stroke-width="2" points="141.34,-46.1 137.84,-36.1 134.34,-46.1 141.34,-46.1"/>
</g>
<!-- 5 -->
<g id="node6" class="node">
<title>5</title>
<path fill="none" stroke="#569ad8" stroke-width="2" d="M253.34,-108C253.34,-108 206.34,-108 206.34,-108 200.34,-108 194.34,-102 194.34,-96 194.34,-96 194.34,-84 194.34,-84 194.34,-78 200.34,-72 206.34,-72 206.34,-72 253.34,-72 253.34,-72 259.34,-72 265.34,-78 265.34,-84 265.34,-84 265.34,-96 265.34,-96 265.34,-102 259.34,-108 253.34,-108"/>
<text text-anchor="middle" x="229.84" y="-87.5" font-family="sans" font-size="10.00">env_export</text>
</g>
<!-- 5&#45;&gt;0 -->
<g id="edge7" class="edge">
<title>5&#45;&gt;0</title>
<path fill="none" stroke="grey" stroke-width="2" d="M207.1,-71.7C195.4,-62.8 180.98,-51.82 168.33,-42.2"/>
<polygon fill="grey" stroke="grey" stroke-width="2" points="170.4,-39.37 160.32,-36.1 166.16,-44.94 170.4,-39.37"/>
</g>
<!-- 6 -->
<g id="node7" class="node">
<title>6</title>
<path fill="none" stroke="#59d856" stroke-width="2" d="M354.34,-108C354.34,-108 295.34,-108 295.34,-108 289.34,-108 283.34,-102 283.34,-96 283.34,-96 283.34,-84 283.34,-84 283.34,-78 289.34,-72 295.34,-72 295.34,-72 354.34,-72 354.34,-72 360.34,-72 366.34,-78 366.34,-84 366.34,-84 366.34,-96 366.34,-96 366.34,-102 360.34,-108 354.34,-108"/>
<text text-anchor="middle" x="324.84" y="-87.5" font-family="sans" font-size="10.00">config_export</text>
</g>
<!-- 6&#45;&gt;0 -->
<g id="edge4" class="edge">
<title>6&#45;&gt;0</title>
<path fill="none" stroke="grey" stroke-width="2" d="M283.34,-73.46C250.82,-61.29 205.98,-44.51 174.71,-32.8"/>
<polygon fill="grey" stroke="grey" stroke-width="2" points="175.66,-29.42 165.06,-29.19 173.2,-35.97 175.66,-29.42"/>
</g>
<!-- 7 -->
<g id="node8" class="node">
<title>7</title>
<path fill="none" stroke="#d89556" stroke-width="2" d="M453.34,-108C453.34,-108 396.34,-108 396.34,-108 390.34,-108 384.34,-102 384.34,-96 384.34,-96 384.34,-84 384.34,-84 384.34,-78 390.34,-72 396.34,-72 396.34,-72 453.34,-72 453.34,-72 459.34,-72 465.34,-78 465.34,-84 465.34,-84 465.34,-96 465.34,-96 465.34,-102 459.34,-108 453.34,-108"/>
<text text-anchor="middle" x="424.84" y="-87.5" font-family="sans" font-size="10.00">annot_export</text>
</g>
<!-- 7&#45;&gt;0 -->
<g id="edge2" class="edge">
<title>7&#45;&gt;0</title>
<path fill="none" stroke="grey" stroke-width="2" d="M384.32,-74.54C381.46,-73.64 378.62,-72.79 375.84,-72 305.61,-52.07 222,-34.94 174.9,-25.88"/>
<polygon fill="grey" stroke="grey" stroke-width="2" points="175.34,-22.4 164.86,-23.97 174.03,-29.28 175.34,-22.4"/>
</g>
</g>
</svg>
