<?xml version="1.0" encoding="UTF-8" standalone="no"?>
<!DOCTYPE svg PUBLIC "-//W3C//DTD SVG 1.1//EN"
 "http://www.w3.org/Graphics/SVG/1.1/DTD/svg11.dtd">
<!-- Generated by graphviz version 2.40.1 (0)
 -->
<!-- Title: snakemake_dag Pages: 1 -->
<svg width="662pt" height="188pt"
 viewBox="0.00 0.00 662.21 188.00" xmlns="http://www.w3.org/2000/svg" xmlns:xlink="http://www.w3.org/1999/xlink">
<g id="graph0" class="graph" transform="scale(1 1) rotate(0) translate(4 184)">
<title>snakemake_dag</title>
<polygon fill="#ffffff" stroke="transparent" points="-4,4 -4,-184 658.2138,-184 658.2138,4 -4,4"/>
<!-- 0 -->
<g id="node1" class="node">
<title>0</title>
<path fill="none" stroke="#d88d56" stroke-width="2" d="M264.7138,-36C264.7138,-36 234.7138,-36 234.7138,-36 228.7138,-36 222.7138,-30 222.7138,-24 222.7138,-24 222.7138,-12 222.7138,-12 222.7138,-6 228.7138,0 234.7138,0 234.7138,0 264.7138,0 264.7138,0 270.7138,0 276.7138,-6 276.7138,-12 276.7138,-12 276.7138,-24 276.7138,-24 276.7138,-30 270.7138,-36 264.7138,-36"/>
<text text-anchor="middle" x="249.7138" y="-15.5" font-family="sans" font-size="10.00" fill="#000000">all</text>
</g>
<!-- 1 -->
<g id="node2" class="node">
<title>1</title>
<path fill="none" stroke="#56c9d8" stroke-width="2" d="M100.7138,-180C100.7138,-180 70.7138,-180 70.7138,-180 64.7138,-180 58.7138,-174 58.7138,-168 58.7138,-168 58.7138,-156 58.7138,-156 58.7138,-150 64.7138,-144 70.7138,-144 70.7138,-144 100.7138,-144 100.7138,-144 106.7138,-144 112.7138,-150 112.7138,-156 112.7138,-156 112.7138,-168 112.7138,-168 112.7138,-174 106.7138,-180 100.7138,-180"/>
<text text-anchor="middle" x="85.7138" y="-159.5" font-family="sans" font-size="10.00" fill="#000000">dea</text>
</g>
<!-- 1&#45;&gt;0 -->
<g id="edge7" class="edge">
<title>1&#45;&gt;0</title>
<path fill="none" stroke="#c0c0c0" stroke-width="2" d="M58.4389,-151.456C40.1784,-142.7912 17.5694,-128.5697 6.7138,-108 -.754,-93.8497 -3.2979,-84.4807 6.7138,-72 32.085,-40.3718 150.8191,-26.0971 212.4175,-20.7291"/>
<polygon fill="#c0c0c0" stroke="#c0c0c0" stroke-width="2" points="212.8319,-24.2067 222.5053,-19.8852 212.2483,-17.2311 212.8319,-24.2067"/>
</g>
<!-- 2 -->
<g id="node3" class="node">
<title>2</title>
<path fill="none" stroke="#56d8a9" stroke-width="2" d="M63.7138,-108C63.7138,-108 27.7138,-108 27.7138,-108 21.7138,-108 15.7138,-102 15.7138,-96 15.7138,-96 15.7138,-84 15.7138,-84 15.7138,-78 21.7138,-72 27.7138,-72 27.7138,-72 63.7138,-72 63.7138,-72 69.7138,-72 75.7138,-78 75.7138,-84 75.7138,-84 75.7138,-96 75.7138,-96 75.7138,-102 69.7138,-108 63.7138,-108"/>
<text text-anchor="middle" x="45.7138" y="-87.5" font-family="sans" font-size="10.00" fill="#000000">volcanos</text>
</g>
<!-- 1&#45;&gt;2 -->
<g id="edge9" class="edge">
<title>1&#45;&gt;2</title>
<path fill="none" stroke="#c0c0c0" stroke-width="2" d="M75.6201,-143.8314C71.1541,-135.7925 65.8063,-126.1666 60.8759,-117.2918"/>
<polygon fill="#c0c0c0" stroke="#c0c0c0" stroke-width="2" points="63.8594,-115.4551 55.9434,-108.4133 57.7403,-118.8546 63.8594,-115.4551"/>
</g>
<!-- 3 -->
<g id="node4" class="node">
<title>3</title>
<path fill="none" stroke="#56d873" stroke-width="2" d="M147.7138,-108C147.7138,-108 105.7138,-108 105.7138,-108 99.7138,-108 93.7138,-102 93.7138,-96 93.7138,-96 93.7138,-84 93.7138,-84 93.7138,-78 99.7138,-72 105.7138,-72 105.7138,-72 147.7138,-72 147.7138,-72 153.7138,-72 159.7138,-78 159.7138,-84 159.7138,-84 159.7138,-96 159.7138,-96 159.7138,-102 153.7138,-108 147.7138,-108"/>
<text text-anchor="middle" x="126.7138" y="-87.5" font-family="sans" font-size="10.00" fill="#000000">aggregate</text>
</g>
<!-- 1&#45;&gt;3 -->
<g id="edge10" class="edge">
<title>1&#45;&gt;3</title>
<path fill="none" stroke="#c0c0c0" stroke-width="2" d="M96.0598,-143.8314C100.6375,-135.7925 106.1189,-126.1666 111.1726,-117.2918"/>
<polygon fill="#c0c0c0" stroke="#c0c0c0" stroke-width="2" points="114.3215,-118.8351 116.2285,-108.4133 108.2386,-115.3712 114.3215,-118.8351"/>
</g>
<!-- 4 -->
<g id="node5" class="node">
<title>4</title>
<path fill="none" stroke="#5692d8" stroke-width="2" d="M225.7138,-108C225.7138,-108 189.7138,-108 189.7138,-108 183.7138,-108 177.7138,-102 177.7138,-96 177.7138,-96 177.7138,-84 177.7138,-84 177.7138,-78 183.7138,-72 189.7138,-72 189.7138,-72 225.7138,-72 225.7138,-72 231.7138,-72 237.7138,-78 237.7138,-84 237.7138,-84 237.7138,-96 237.7138,-96 237.7138,-102 231.7138,-108 225.7138,-108"/>
<text text-anchor="middle" x="207.7138" y="-87.5" font-family="sans" font-size="10.00" fill="#000000">heatmap</text>
</g>
<!-- 1&#45;&gt;4 -->
<g id="edge11" class="edge">
<title>1&#45;&gt;4</title>
<path fill="none" stroke="#c0c0c0" stroke-width="2" d="M112.7895,-146.0209C129.1987,-136.3368 150.4101,-123.8186 168.6187,-113.0725"/>
<polygon fill="#c0c0c0" stroke="#c0c0c0" stroke-width="2" points="170.4488,-116.0566 177.282,-107.9597 166.891,-110.0281 170.4488,-116.0566"/>
</g>
<!-- 2&#45;&gt;0 -->
<g id="edge6" class="edge">
<title>2&#45;&gt;0</title>
<path fill="none" stroke="#c0c0c0" stroke-width="2" d="M75.7978,-75.6954C78.7903,-74.3992 81.7987,-73.1453 84.7138,-72 127.9338,-55.02 178.8919,-38.9201 212.6213,-28.7907"/>
<polygon fill="#c0c0c0" stroke="#c0c0c0" stroke-width="2" points="213.9244,-32.0546 222.5084,-25.8444 211.9252,-25.3461 213.9244,-32.0546"/>
</g>
<!-- 3&#45;&gt;0 -->
<g id="edge5" class="edge">
<title>3&#45;&gt;0</title>
<path fill="none" stroke="#c0c0c0" stroke-width="2" d="M157.7519,-71.8314C174.7209,-61.8983 195.8292,-49.5422 213.5414,-39.1741"/>
<polygon fill="#c0c0c0" stroke="#c0c0c0" stroke-width="2" points="215.5922,-42.0292 222.4543,-33.9568 212.056,-35.9881 215.5922,-42.0292"/>
</g>
<!-- 4&#45;&gt;0 -->
<g id="edge8" class="edge">
<title>4&#45;&gt;0</title>
<path fill="none" stroke="#c0c0c0" stroke-width="2" d="M218.3122,-71.8314C223.0015,-63.7925 228.6166,-54.1666 233.7936,-45.2918"/>
<polygon fill="#c0c0c0" stroke="#c0c0c0" stroke-width="2" points="236.9572,-46.8146 238.9727,-36.4133 230.9107,-43.2875 236.9572,-46.8146"/>
</g>
<!-- 5 -->
<g id="node6" class="node">
<title>5</title>
<path fill="none" stroke="#70d856" stroke-width="2" d="M315.2138,-108C315.2138,-108 268.2138,-108 268.2138,-108 262.2138,-108 256.2138,-102 256.2138,-96 256.2138,-96 256.2138,-84 256.2138,-84 256.2138,-78 262.2138,-72 268.2138,-72 268.2138,-72 315.2138,-72 315.2138,-72 321.2138,-72 327.2138,-78 327.2138,-84 327.2138,-84 327.2138,-96 327.2138,-96 327.2138,-102 321.2138,-108 315.2138,-108"/>
<text text-anchor="middle" x="291.7138" y="-87.5" font-family="sans" font-size="10.00" fill="#000000">env_export</text>
</g>
<!-- 5&#45;&gt;0 -->
<g id="edge4" class="edge">
<title>5&#45;&gt;0</title>
<path fill="none" stroke="#c0c0c0" stroke-width="2" d="M281.1154,-71.8314C276.4261,-63.7925 270.8109,-54.1666 265.634,-45.2918"/>
<polygon fill="#c0c0c0" stroke="#c0c0c0" stroke-width="2" points="268.5168,-43.2875 260.4549,-36.4133 262.4704,-46.8146 268.5168,-43.2875"/>
</g>
<!-- 6 -->
<g id="node7" class="node">
<title>6</title>
<path fill="none" stroke="#d85656" stroke-width="2" d="M416.2138,-108C416.2138,-108 357.2138,-108 357.2138,-108 351.2138,-108 345.2138,-102 345.2138,-96 345.2138,-96 345.2138,-84 345.2138,-84 345.2138,-78 351.2138,-72 357.2138,-72 357.2138,-72 416.2138,-72 416.2138,-72 422.2138,-72 428.2138,-78 428.2138,-84 428.2138,-84 428.2138,-96 428.2138,-96 428.2138,-102 422.2138,-108 416.2138,-108"/>
<text text-anchor="middle" x="386.7138" y="-87.5" font-family="sans" font-size="10.00" fill="#000000">config_export</text>
</g>
<!-- 6&#45;&gt;0 -->
<g id="edge1" class="edge">
<title>6&#45;&gt;0</title>
<path fill="none" stroke="#c0c0c0" stroke-width="2" d="M352.1429,-71.8314C331.9333,-61.2103 306.4524,-47.8188 285.9611,-37.0497"/>
<polygon fill="#c0c0c0" stroke="#c0c0c0" stroke-width="2" points="287.4144,-33.8596 276.9341,-32.3056 284.1579,-40.056 287.4144,-33.8596"/>
</g>
<!-- 7 -->
<g id="node8" class="node">
<title>7</title>
<path fill="none" stroke="#d8cb56" stroke-width="2" d="M515.2138,-108C515.2138,-108 458.2138,-108 458.2138,-108 452.2138,-108 446.2138,-102 446.2138,-96 446.2138,-96 446.2138,-84 446.2138,-84 446.2138,-78 452.2138,-72 458.2138,-72 458.2138,-72 515.2138,-72 515.2138,-72 521.2138,-72 527.2138,-78 527.2138,-84 527.2138,-84 527.2138,-96 527.2138,-96 527.2138,-102 521.2138,-108 515.2138,-108"/>
<text text-anchor="middle" x="486.7138" y="-87.5" font-family="sans" font-size="10.00" fill="#000000">annot_export</text>
</g>
<!-- 7&#45;&gt;0 -->
<g id="edge2" class="edge">
<title>7&#45;&gt;0</title>
<path fill="none" stroke="#c0c0c0" stroke-width="2" d="M446.1508,-74.8427C443.3035,-73.8578 440.4704,-72.9009 437.7138,-72 385.9332,-55.0772 325.2258,-38.1591 287.1118,-27.8848"/>
<polygon fill="#c0c0c0" stroke="#c0c0c0" stroke-width="2" points="287.5524,-24.3793 276.987,-25.1686 285.7386,-31.1403 287.5524,-24.3793"/>
</g>
<!-- 8 -->
<g id="node9" class="node">
<title>8</title>
<path fill="none" stroke="#afd856" stroke-width="2" d="M642.2138,-108C642.2138,-108 557.2138,-108 557.2138,-108 551.2138,-108 545.2138,-102 545.2138,-96 545.2138,-96 545.2138,-84 545.2138,-84 545.2138,-78 551.2138,-72 557.2138,-72 557.2138,-72 642.2138,-72 642.2138,-72 648.2138,-72 654.2138,-78 654.2138,-84 654.2138,-84 654.2138,-96 654.2138,-96 654.2138,-102 648.2138,-108 642.2138,-108"/>
<text text-anchor="middle" x="599.7138" y="-87.5" font-family="sans" font-size="10.00" fill="#000000">feature_list_export</text>
</g>
<!-- 8&#45;&gt;0 -->
<g id="edge3" class="edge">
<title>8&#45;&gt;0</title>
<path fill="none" stroke="#c0c0c0" stroke-width="2" d="M545.159,-74.0796C542.3091,-73.3524 539.4813,-72.6542 536.7138,-72 447.7155,-50.9607 341.6515,-32.7614 286.7534,-23.845"/>
<polygon fill="#c0c0c0" stroke="#c0c0c0" stroke-width="2" points="287.2247,-20.3758 276.7949,-22.2384 286.1098,-27.2865 287.2247,-20.3758"/>
</g>
</g>
</svg>
